Coordinates
version=1
nRows=26
nColumns=24
inDegrees=yes

Units are S.I. units (second, meters, Newtons, ...)
Angles are in degrees.

endheader
time	pelvis_tilt	pelvis_list	pelvis_rotation	pelvis_tx	pelvis_ty	pelvis_tz	hip_flexion_r	hip_adduction_r	hip_rotation_r	knee_angle_r	ankle_angle_r	subtalar_angle_r	mtp_angle_r	hip_flexion_l	hip_adduction_l	hip_rotation_l	knee_angle_l	ankle_angle_l	subtalar_angle_l	mtp_angle_l	lumbar_extension	lumbar_bending	lumbar_rotation
      1.22050000	      1.43207170	      8.95039115	     -5.36745509	      0.23099768	      1.00930859	      0.27686883	     13.40447397	    -11.80102526	     -0.44188401	    -67.07327169	     -0.86757998	     -7.76393165	      3.80299828	      6.37238675	     14.47761407	      5.39401480	    -14.68266263	      5.39858548	    -16.08476109	     -3.95042825	    -14.78438870	     -4.20027971	     -0.99252403
      1.22466667	      1.46536319	      8.81362147	     -5.50551206	      0.23608327	      1.01009014	      0.27682324	     13.90465679	    -11.56524398	     -0.31885066	    -66.72105271	     -0.18313023	     -7.92074453	      3.53564953	      5.79823531	     14.37004840	      5.48407814	    -14.24181461	      5.35069092	    -16.25576126	     -4.10515207	    -14.83218933	     -3.95423515	     -1.23453503
      1.22883333	      1.45307023	      8.65591928	     -5.65159653	      0.24114259	      1.01079899	      0.27685251	     14.43980322	    -11.27373927	     -0.16406698	    -66.30465386	      0.49026845	     -8.12130083	      3.49362083	      5.30339848	     14.21972762	      5.45241846	    -13.86201333	      5.38828698	    -16.24890295	     -4.13449264	    -14.82719289	     -3.74627689	     -1.27989160
      1.23300000	      1.45315342	      8.48847278	     -5.78958263	      0.24619567	      1.01151861	      0.27687122	     14.93827585	    -10.97028072	     -0.01968844	    -65.81977713	      1.16927024	     -8.29777919	      3.43921657	      4.78751049	     14.06315902	      5.44161244	    -13.46971613	      5.40131197	    -16.26331636	     -4.17270654	    -14.84833328	     -3.49909023	     -1.37263748
      1.23716667	      1.45885501	      8.31176878	     -5.91679596	      0.25127201	      1.01225352	      0.27689257	     15.40187536	    -10.65547271	      0.10772017	    -65.26201976	      1.84154481	     -8.47728335	      3.38819147	      4.25342045	     13.89728812	      5.44042920	    -13.05934152	      5.41355344	    -16.27524176	     -4.20922172	    -14.86361229	     -3.24560854	     -1.47682535
      1.24133333	      1.51232798	      8.14115829	     -6.04973092	      0.25632183	      1.01301191	      0.27690558	     15.80140054	    -10.35089882	      0.24381513	    -64.64735288	      2.47956998	     -8.59347459	      3.25336269	      3.64792540	     13.74966852	      5.50978994	    -12.60210657	      5.38455621	    -16.35311144	     -4.29737815	    -14.96006850	     -2.98966939	     -1.69405196
      1.24550000	      1.48532389	      7.97634197	     -6.15545420	      0.26137592	      1.01362866	      0.27691020	     16.26867717	    -10.04091450	      0.36261474	    -63.98541487	      3.17250935	     -8.78022464	      3.19495976	      3.16045038	     13.59369371	      5.49454519	    -12.21200836	      5.38592019	    -16.36333231	     -4.33948045	    -14.93914954	     -2.74383280	     -1.77051975
      1.24966667	      1.48842726	      7.80595232	     -6.26890113	      0.26642461	      1.01427008	      0.27693912	     16.68380424	     -9.72204804	      0.49176685	    -63.25871451	      3.82851429	     -8.92565117	      3.13101249	      2.62887716	     13.43466233	      5.49276900	    -11.79656132	      5.37988565	    -16.37268607	     -4.38494957	    -14.96360356	     -2.49015292	     -1.88068543
      1.25383333	      1.55884568	      7.62644831	     -6.37710497	      0.27149045	      1.01500187	      0.27695802	     16.99376412	     -9.40555625	      0.60635268	    -62.45351891	      4.42411307	     -9.03890455	      2.93372980	      1.98911099	     13.27964719	      5.58021847	    -11.31387775	      5.33875972	    -16.45923346	     -4.51094001	    -15.06530264	     -2.22873623	     -2.11673780
      1.25800000	      1.54746611	      7.48723539	     -6.48192570	      0.27653260	      1.01555010	      0.27696350	     17.39969295	     -9.11881381	      0.74498898	    -61.63597564	      5.10695256	     -9.11218549	      1.67862464	      1.44209710	     13.16727655	      5.71763203	    -10.82369133	      5.16604356	    -16.78269494	     -5.27120191	    -15.06653558	     -2.00503153	     -2.33982107
      1.26216667	      1.56534974	      7.27354765	     -6.56606852	      0.28159019	      1.01616079	      0.27701026	     17.71462380	     -8.74792236	      0.85038332	    -60.71014812	      5.65330165	     -9.26971200	      1.58585256	      0.89879858	     12.95586472	      5.65970165	    -10.43872018	      5.26112633	    -16.59801326	     -5.32372648	    -15.11777567	     -1.71803005	     -2.36215436
      1.26633333	      1.55841124	      7.10296713	     -6.64790772	      0.28661355	      1.01666703	      0.27705985	     18.05861524	     -8.41990057	      0.97531866	    -59.76091346	      6.23641257	     -9.38980107	      1.52727886	      0.39295589	     12.79135409	      5.62290284	    -10.05737599	      5.25938157	    -16.53799982	     -5.36087870	    -15.13930697	     -1.48963693	     -2.45317162
      1.27050000	      1.57765558	      6.94087604	     -6.73247578	      0.29167502	      1.01717371	      0.27710216	     18.35667496	     -8.11113004	      1.09382223	    -58.75940637	      6.72121918	     -9.51329446	      1.41760148	     -0.17571837	     12.64291340	      5.64407647	     -9.60571015	      5.25804119	    -16.51582663	     -5.42428895	    -15.18692256	     -1.23943806	     -2.61669240
      1.27466667	      1.55772154	      6.78144480	     -6.80042344	      0.29670979	      1.01756529	      0.27714307	     18.68075674	     -7.79797471	      1.21405787	    -57.71824218	      7.23216602	     -9.61463415	      1.34976728	     -0.67200623	     12.49129404	      5.62877962	     -9.21763491	      5.22939636	    -16.49609458	     -5.46555140	    -15.19364255	     -1.00841618	     -2.71831841
      1.27883333	      1.59761024	      6.62728763	     -6.87099005	      0.30177119	      1.01803519	      0.27719454	     18.91549473	     -7.50326223	      1.32539194	    -56.61121115	      7.61883070	     -9.75080990	      1.22614863	     -1.26950700	     12.35408281	      5.67374972	     -8.75303996	      5.20641073	    -16.49839605	     -5.53353894	    -15.26290747	     -0.78381220	     -2.89238776
      1.28300000	      1.59548162	      6.47113141	     -6.92416271	      0.30681548	      1.01838859	      0.27723622	     19.17673331	     -7.20249339	      1.43460562	    -55.46417858	      8.03166860	     -9.84325027	      1.15264410	     -1.78776976	     12.20750366	      5.66244142	     -8.36230056	      5.16198849	    -16.47975262	     -5.57590884	    -15.28911734	     -0.55910327	     -2.99852421
      1.28716667	      1.64065118	      6.33352838	     -6.98199306	      0.31187937	      1.01874926	      0.27728286	     19.37560895	     -6.93309788	      1.54385016	    -54.27696664	      8.32044032	    -10.00259337	      1.00715205	     -2.39223875	     12.08855257	      5.72250239	     -7.89605457	      5.12656600	    -16.48663072	     -5.65112717	    -15.37261689	     -0.35158728	     -3.18682009
      1.29133333	      1.58849809	      6.21249062	     -7.02210294	      0.31694033	      1.01892927	      0.27732189	     19.66982354	     -6.67365698	      1.64516524	    -53.06314221	      8.64152120	    -10.07733582	      0.93976170	     -2.85551304	     11.97208117	      5.70351671	     -7.50042021	      5.08367000	    -16.45344610	     -5.68770697	    -15.34128157	     -0.15946086	     -3.28148091
      1.29550000	      1.61279399	      6.08238913	     -7.06243453	      0.32200889	      1.01918823	      0.27737432	     19.85097649	     -6.41613835	      1.74484169	    -51.78203956	      8.85186988	    -10.21228446	      0.85325787	     -3.41553174	     11.85517678	      5.71290063	     -7.08084228	      5.03266143	    -16.43034401	     -5.73155826	    -15.39086475	      0.03716251	     -3.43659012
      1.29966667	      1.65590906	      5.97534369	     -7.10154910	      0.32709247	      1.01941382	      0.27742109	     20.00290843	     -6.19292639	      1.84208121	    -50.47095329	      8.97241496	    -10.38476065	      0.72002702	     -4.01229008	     11.76638566	      5.76928492	     -6.62459892	      5.00465204	    -16.42681820	     -5.79430000	    -15.45534636	      0.20709299	     -3.62821903
      1.30383333	      1.62900069	      5.87679335	     -7.12452031	      0.33216783	      1.01949413	      0.27746300	     20.21650610	     -5.97417660	      1.93108852	    -49.13025810	      9.14140866	    -10.46829713	      0.63964041	     -4.50206786	     11.67451714	      5.76004789	     -6.23056010	      4.93636828	    -16.38491471	     -5.83326418	    -15.45020398	      0.37019300	     -3.74590390
      1.30800000	      1.69101557	      5.79488871	     -7.16113321	      0.33725994	      1.01963928	      0.27751941	     20.32230004	     -5.78950225	      2.02293136	    -47.75151146	      9.17255184	    -10.64430273	      0.50453272	     -5.11714090	     11.61278419	      5.80410438	     -5.77359941	      4.90521271	    -16.36831900	     -5.89249211	    -15.53884522	      0.51008748	     -3.93653935
      1.31216667	      1.68647519	      5.71859526	     -7.18003700	      0.34234997	      1.01966214	      0.27756802	     20.47915456	     -5.60420701	      2.11267156	    -46.33129682	      9.20005572	    -10.79064555	      0.34821847	     -5.64255375	     11.54633047	      5.83080171	     -5.35383631	      4.83691689	    -16.34432645	     -5.96019893	    -15.55075962	      0.64779636	     -4.10442042
      1.31633333	      1.66934909	      5.64834248	     -7.19508541	      0.34745361	      1.01962197	      0.27761001	     20.63583753	     -5.43544996	      2.17774792	    -44.88243195	      9.21293855	    -10.86083627	      0.25468687	     -6.14248313	     11.48397547	      5.80662535	     -4.95733278	      4.77811936	    -16.28975504	     -5.99997199	    -15.55007966	      0.77545277	     -4.22708561
      1.32050000	      1.68694188	      5.60515263	     -7.22449802	      0.35255125	      1.01955300	      0.27767843	     20.75166078	     -5.29525394	      2.26928921	    -43.41130401	      9.13231404	    -11.02621410	      0.11647700	     -6.69468370	     11.45539266	      5.83204286	     -4.52394077	      4.74824929	    -16.24293894	     -6.05396632	    -15.58591185	      0.87189538	     -4.40417496
      1.32466667	      1.65556915	      5.55645842	     -7.23536878	      0.35767154	      1.01940290	      0.27772395	     20.89322721	     -5.15680353	      2.32564258	    -41.89573341	      9.06383352	    -11.07731788	      0.02491137	     -7.17287509	     11.41294869	      5.79988011	     -4.13859066	      4.67791187	    -16.17382575	     -6.08999501	    -15.55965287	      0.98377413	     -4.52429388
